<?xml version="1.0" standalone="no"?>
<!DOCTYPE svg PUBLIC "-//W3C//DTD SVG 20010904//EN"
 "http://www.w3.org/TR/2001/REC-SVG-20010904/DTD/svg10.dtd">
<svg version="1.0" xmlns="http://www.w3.org/2000/svg"
 width="300.000000pt" height="120.000000pt" viewBox="0 0 300.000000 120.000000"
 preserveAspectRatio="xMidYMid meet">
<metadata>
Created by potrace 1.16, written by Peter Selinger 2001-2019
</metadata>
<g transform="translate(0.000000,120.000000) scale(0.100000,-0.100000)"
fill="#000000" stroke="none">
<path d="M123 790 c-55 -33 -63 -61 -63 -230 l0 -150 80 0 80 0 0 163 c0 113
4 167 12 175 8 8 61 12 175 12 150 0 163 -1 173 -19 6 -11 10 -87 10 -175 l0
-156 80 0 80 0 0 146 c0 164 -10 202 -64 235 -28 17 -54 19 -281 19 -230 0
-253 -2 -282 -20z"/>
<path d="M873 790 c-57 -34 -68 -62 -68 -175 0 -115 14 -153 68 -182 28 -16
66 -18 300 -21 l267 -3 0 25 0 26 -213 0 c-274 0 -257 -10 -257 154 0 81 4
126 12 134 9 9 75 12 235 12 l223 0 0 25 0 25 -267 0 c-248 0 -270 -2 -300
-20z"/>
<path d="M1500 779 c0 -28 6 -32 110 -81 61 -28 107 -54 103 -58 -4 -4 -28
-14 -53 -23 -25 -9 -71 -26 -102 -37 l-58 -21 0 -70 c0 -68 1 -70 23 -63 12 3
100 35 196 71 l174 64 145 -71 c79 -38 146 -70 148 -70 2 0 4 13 4 28 0 27 -9
33 -167 109 -93 44 -248 119 -345 166 l-178 86 0 -30z"/>
<path d="M2025 750 l-159 -58 81 -41 82 -41 73 26 c40 14 77 29 81 34 4 4 7
36 5 72 l-3 66 -160 -58z"/>
<path d="M2250 785 l0 -25 119 0 c86 0 122 -4 130 -13 6 -8 12 -76 13 -173 l3
-159 80 0 80 0 3 159 c1 97 7 165 13 173 8 9 44 13 130 13 l119 0 0 25 0 25
-345 0 -345 0 0 -25z"/>
<path d="M1020 615 l0 -25 201 0 200 0 -3 23 c-3 22 -4 22 -200 25 l-198 2 0
-25z"/>
</g>
</svg>
